#tb 0: 184/11029
#media_type 0: video
#codec_id 0: rawvideo
#dimensions 0: 320x200
#sar 0: 0/1
#tb 1: 1/22058
#media_type 1: audio
#codec_id 1: pcm_s16le
#sample_rate 1: 22058
#channel_layout_name 1: mono
0,          0,          0,        1,   192000, 0xc698297a
1,          0,          0,      368,      736, 0xf63db497
0,          1,          1,        1,   192000, 0x8d5bd6be
1,        368,        368,      368,      736, 0xbc42caef
0,          2,          2,        1,   192000, 0x21c32083
1,        736,        736,      368,      736, 0x5619a45a
0,          3,          3,        1,   192000, 0x849cd4c0
1,       1104,       1104,      368,      736, 0x1b8ac0f9
0,          4,          4,        1,   192000, 0x8c63a4f0
1,       1472,       1472,      368,      736, 0x55dcac78
0,          5,          5,        1,   192000, 0x5dbee9ab
1,       1840,       1840,      368,      736, 0xd9f2a266
0,          6,          6,        1,   192000, 0x2b12d9bb
1,       2208,       2208,      368,      736, 0x22f8af51
0,          7,          7,        1,   192000, 0x1a737e17
1,       2576,       2576,      368,      736, 0x838bacb8
0,          8,          8,        1,   192000, 0x90536c29
1,       2944,       2944,      368,      736, 0x7b29b4f9
0,          9,          9,        1,   192000, 0xd7795243
1,       3312,       3312,      368,      736, 0x5a01b505
0,         10,         10,        1,   192000, 0x08847e17
1,       3680,       3680,      368,      736, 0xc330abb4
0,         11,         11,        1,   192000, 0x47aa5a3b
1,       4048,       4048,      368,      736, 0x84d6c49d
0,         12,         12,        1,   192000, 0x9435266f
1,       4416,       4416,      368,      736, 0xd0a1a588
0,         13,         13,        1,   192000, 0x87e7ea9c
1,       4784,       4784,      368,      736, 0x9083a382
0,         14,         14,        1,   192000, 0x6dc00285
1,       5152,       5152,      368,      736, 0x291eb335
0,         15,         15,        1,   192000, 0xf6407ddf
1,       5520,       5520,      368,      736, 0xdda2b452
0,         16,         16,        1,   192000, 0x55541c09
1,       5888,       5888,      368,      736, 0x82feab67
0,         17,         17,        1,   192000, 0xf1c4f5be
1,       6256,       6256,      368,      736, 0xfca6b943
0,         18,         18,        1,   192000, 0xe59ff74c
1,       6624,       6624,      368,      736, 0x2a4ea1fd
0,         19,         19,        1,   192000, 0x0fedcf04
1,       6992,       6992,      368,      736, 0xbb4bc783
0,         20,         20,        1,   192000, 0x04b893dd
1,       7360,       7360,      368,      736, 0x8c10a799
0,         21,         21,        1,   192000, 0xfef47d83
1,       7728,       7728,      368,      736, 0x8751a53b
0,         22,         22,        1,   192000, 0x07bde9ed
1,       8096,       8096,      368,      736, 0x4b3c9fc3
0,         23,         23,        1,   192000, 0xb8003fd2
1,       8464,       8464,      368,      736, 0x5dad9b46
0,         24,         24,        1,   192000, 0x4eb6b3ed
1,       8832,       8832,      368,      736, 0xe106a3e6
0,         25,         25,        1,   192000, 0x320b0b34
1,       9200,       9200,      368,      736, 0xa42a9a3b
0,         26,         26,        1,   192000, 0x5156e90f
1,       9568,       9568,      368,      736, 0xb5069901
0,         27,         27,        1,   192000, 0x34778cde
1,       9936,       9936,      368,      736, 0x3556c3c3
0,         28,         28,        1,   192000, 0xd8d96e44
1,      10304,      10304,      368,      736, 0xa870c1ee
0,         29,         29,        1,   192000, 0x962ae9f3
1,      10672,      10672,      368,      736, 0xc388b6d8
0,         30,         30,        1,   192000, 0x3d29d85a
1,      11040,      11040,      368,      736, 0xe167a2b0
0,         31,         31,        1,   192000, 0x838554fa
1,      11408,      11408,      368,      736, 0x15aeb59d
0,         32,         32,        1,   192000, 0xd64a3b93
1,      11776,      11776,      368,      736, 0xa576c0bc
0,         33,         33,        1,   192000, 0x380ef140
1,      12144,      12144,      368,      736, 0x44f3b827
0,         34,         34,        1,   192000, 0x076b38c0
1,      12512,      12512,      368,      736, 0xfa5ecd84
0,         35,         35,        1,   192000, 0xd9a67c7c
1,      12880,      12880,      368,      736, 0xb7b996f6
0,         36,         36,        1,   192000, 0xc2849a50
1,      13248,      13248,      368,      736, 0xb390c311
0,         37,         37,        1,   192000, 0x9b94a347
1,      13616,      13616,      368,      736, 0xc5a9ab0f
0,         38,         38,        1,   192000, 0xe3ba9c07
1,      13984,      13984,      368,      736, 0x1a3aa3f6
0,         39,         39,        1,   192000, 0xef0011f5
1,      14352,      14352,      368,      736, 0xdaaf9e42
0,         40,         40,        1,   192000, 0xa98381e8
1,      14720,      14720,      368,      736, 0xad8fb0ba
0,         41,         41,        1,   192000, 0x27e5ce9b
1,      15088,      15088,      368,      736, 0x9cce9e05
0,         42,         42,        1,   192000, 0x8568e33f
1,      15456,      15456,      368,      736, 0x70639e6f
0,         43,         43,        1,   192000, 0x540633b6
1,      15824,      15824,      368,      736, 0xc5e1ba9b
0,         44,         44,        1,   192000, 0xd8fcfbed
1,      16192,      16192,      368,      736, 0x9e6cb422
0,         45,         45,        1,   192000, 0x15609e04
1,      16560,      16560,      368,      736, 0x5c559a1e
0,         46,         46,        1,   192000, 0x7e4f5c9b
1,      16928,      16928,      368,      736, 0xb071c2da
0,         47,         47,        1,   192000, 0xef14950d
1,      17296,      17296,      368,      736, 0xd9bdb9eb
0,         48,         48,        1,   192000, 0x9e0b85b9
1,      17664,      17664,      368,      736, 0x5ecab2d5
0,         49,         49,        1,   192000, 0xf3b69b95
1,      18032,      18032,      368,      736, 0x0f78a8fe
0,         50,         50,        1,   192000, 0x09b6db39
1,      18400,      18400,      368,      736, 0x74ebaccd
0,         51,         51,        1,   192000, 0x4dc9a300
1,      18768,      18768,      368,      736, 0x2cfab78e
0,         52,         52,        1,   192000, 0x29d9fdde
1,      19136,      19136,      368,      736, 0x32c6c26e
0,         53,         53,        1,   192000, 0x22e79283
1,      19504,      19504,      368,      736, 0xbe339d74
0,         54,         54,        1,   192000, 0x5f5c95aa
1,      19872,      19872,      368,      736, 0x2c31b687
0,         55,         55,        1,   192000, 0x4d76efde
1,      20240,      20240,      368,      736, 0xcbb0b8d5
0,         56,         56,        1,   192000, 0xb1d79f6a
1,      20608,      20608,      368,      736, 0x17bcb56a
0,         57,         57,        1,   192000, 0xedfe6012
1,      20976,      20976,      368,      736, 0x116fb70c
0,         58,         58,        1,   192000, 0x4a56033a
1,      21344,      21344,      368,      736, 0xa22eb34f
0,         59,         59,        1,   192000, 0xdbc9f746
1,      21712,      21712,      368,      736, 0x130bc9bb
0,         60,         60,        1,   192000, 0xedff8a16
1,      22080,      22080,      368,      736, 0xbb0b77aa
0,         61,         61,        1,   192000, 0x46b5f843
1,      22448,      22448,      368,      736, 0xafb5a9f0
0,         62,         62,        1,   192000, 0xbd12dbfc
1,      22816,      22816,      368,      736, 0xaf55f1a3
0,         63,         63,        1,   192000, 0xacf2a336
1,      23184,      23184,      368,      736, 0x988e9669
0,         64,         64,        1,   192000, 0x13843e7f
1,      23552,      23552,      368,      736, 0x4e2cc9ab
0,         65,         65,        1,   192000, 0x6fda777f
1,      23920,      23920,      368,      736, 0x34b3b7ea
0,         66,         66,        1,   192000, 0x16ffef07
1,      24288,      24288,      368,      736, 0x1252a16b
0,         67,         67,        1,   192000, 0xb36c06c6
1,      24656,      24656,      368,      736, 0x04279e74
0,         68,         68,        1,   192000, 0xd65746b1
1,      25024,      25024,      368,      736, 0x9c2ecb2e
0,         69,         69,        1,   192000, 0x2817079b
1,      25392,      25392,      368,      736, 0x6c16945a
0,         70,         70,        1,   192000, 0xadb60837
1,      25760,      25760,      368,      736, 0x2c0cc1f9
0,         71,         71,        1,   192000, 0x60cb0d87
1,      26128,      26128,      368,      736, 0x52fba868
0,         72,         72,        1,   192000, 0x14e5b02b
1,      26496,      26496,      368,      736, 0xe2a2a5be
0,         73,         73,        1,   192000, 0x574fd8f4
1,      26864,      26864,      368,      736, 0x2f56a95b
0,         74,         74,        1,   192000, 0xffb9a8fa
1,      27232,      27232,      368,      736, 0x573196a0
0,         75,         75,        1,   192000, 0xc2904a3e
1,      27600,      27600,      368,      736, 0xb542c1dc
0,         76,         76,        1,   192000, 0x22e77c9b
1,      27968,      27968,      368,      736, 0x7f6a9964
0,         77,         77,        1,   192000, 0xd76d81c2
1,      28336,      28336,      368,      736, 0xc39db324
0,         78,         78,        1,   192000, 0xf5b0fcc8
1,      28704,      28704,      368,      736, 0xa2dbb058
0,         79,         79,        1,   192000, 0xc452ce4d
1,      29072,      29072,      368,      736, 0x8bfac722
0,         80,         80,        1,   192000, 0x64a53e4f
1,      29440,      29440,      368,      736, 0x5e679406
0,         81,         81,        1,   192000, 0xe6c115da
1,      29808,      29808,      368,      736, 0xd7a8c2aa
0,         82,         82,        1,   192000, 0x959d45fe
1,      30176,      30176,      368,      736, 0x5ec6a7a0
0,         83,         83,        1,   192000, 0xabb270b6
1,      30544,      30544,      368,      736, 0x9f33c47f
0,         84,         84,        1,   192000, 0x451642b8
1,      30912,      30912,      368,      736, 0x4c4998bf
0,         85,         85,        1,   192000, 0x028b2202
1,      31280,      31280,      368,      736, 0x2363c344
0,         86,         86,        1,   192000, 0xf5d79b86
1,      31648,      31648,      368,      736, 0xecf9a09f
0,         87,         87,        1,   192000, 0xebe0623e
1,      32016,      32016,      368,      736, 0x5a069e69
0,         88,         88,        1,   192000, 0x7560d1eb
1,      32384,      32384,      368,      736, 0xe2e5b106
0,         89,         89,        1,   192000, 0xcbf85785
1,      32752,      32752,      368,      736, 0x7ff4b09e
0,         90,         90,        1,   192000, 0x180f6aca
1,      33120,      33120,      368,      736, 0x0157acd2
0,         91,         91,        1,   192000, 0xea8ecb95
1,      33488,      33488,      368,      736, 0x64849b5a
0,         92,         92,        1,   192000, 0x6a5e3639
1,      33856,      33856,      368,      736, 0x0399b037
0,         93,         93,        1,   192000, 0x5aa6c22c
1,      34224,      34224,      368,      736, 0xa57ea80f
0,         94,         94,        1,   192000, 0xdbb50948
1,      34592,      34592,      368,      736, 0x233eb2a4
0,         95,         95,        1,   192000, 0x0184a90a
1,      34960,      34960,      368,      736, 0x8aa5dfa0
0,         96,         96,        1,   192000, 0x0efc1358
1,      35328,      35328,      368,      736, 0x0c9fa877
0,         97,         97,        1,   192000, 0x29053255
1,      35696,      35696,      368,      736, 0xbe6faef2
0,         98,         98,        1,   192000, 0x3a7e239d
1,      36064,      36064,      368,      736, 0xf800c0f2
0,         99,         99,        1,   192000, 0x3bd99ca5
1,      36432,      36432,      368,      736, 0x1d68a964
0,        100,        100,        1,   192000, 0xe1b5a4d6
1,      36800,      36800,      368,      736, 0x0e4f8872
0,        101,        101,        1,   192000, 0xf487f8bb
1,      37168,      37168,      368,      736, 0x31c6ed1c
0,        102,        102,        1,   192000, 0x8b14387c
1,      37536,      37536,      368,      736, 0x7448a8d2
0,        103,        103,        1,   192000, 0xdaeb9cb4
1,      37904,      37904,      368,      736, 0x79a2ac09
0,        104,        104,        1,   192000, 0xdc1d2f5b
1,      38272,      38272,      368,      736, 0xbdbfa397
0,        105,        105,        1,   192000, 0x4dcab167
1,      38640,      38640,      368,      736, 0xa5deb8bb
0,        106,        106,        1,   192000, 0x87fcf0d3
1,      39008,      39008,      368,      736, 0x4565d179
0,        107,        107,        1,   192000, 0x36d37542
1,      39376,      39376,      368,      736, 0x64d89f91
0,        108,        108,        1,   192000, 0x59ba49c5
1,      39744,      39744,      368,      736, 0x32319f68
0,        109,        109,        1,   192000, 0xf679b712
1,      40112,      40112,      368,      736, 0x3efdc04f
